<svg xmlns="http://www.w3.org/2000/svg" viewBox="0 0 104.02 92.3"><defs><style>.cls-1{fill:#f7ee81;}</style></defs><title>Fichier 11</title><g id="Calque_2" data-name="Calque 2"><g id="Calque_1-2" data-name="Calque 1"><path class="cls-1" d="M.07,34.66a24.49,24.49,0,0,0,3.28,9.59,52.19,52.19,0,0,0,11.7,13.89,93.9,93.9,0,0,0,7.78,6c1.66,1.17,3.11,2.62,4.74,3.84C33,72,38.79,75.14,45.49,76.33c1.56.28,2.52.87,3,2.34a.66.66,0,0,0,.11.24,7.94,7.94,0,0,1,1.24,5.68A11.35,11.35,0,0,1,48.32,89c-.17.29-.37.56-.52.85-.47.93-.27,1.51.7,1.9a9.56,9.56,0,0,0,3,.54c2,.1,4,0,6,0,1.67,0,3.35.13,5,.08a23.38,23.38,0,0,0,4.93-.58A5.54,5.54,0,0,0,69.15,91c.29-.19.59-.4.56-.77s-.4-.56-.73-.68a7.11,7.11,0,0,0-2.42-.32,8.93,8.93,0,0,1-6.71-3.13,1.47,1.47,0,0,1-.36-1c-.29-3.06.54-6,1.23-8.89.09-.37.34-.42.61-.49a44.89,44.89,0,0,0,15.68-8h0l0,0,0,0h0l1.64-1.35h0a59.1,59.1,0,0,0,8.74-8.94,55,55,0,0,0,8.21-13.73A44.37,44.37,0,0,0,98.05,34a45.28,45.28,0,0,0,.58-6.87A1.63,1.63,0,0,1,99.08,26c1.58-2.05,3.15-4.11,4.75-6.14.3-.37.25-.5-.15-.72-2.18-1.17-4.34-2.37-6.51-3.56a1.07,1.07,0,0,1-.56-.53C94.15,9.2,89.71,5.37,84,3A31.59,31.59,0,0,0,69.61.05,24.15,24.15,0,0,0,56.29,5.28a42.54,42.54,0,0,0-10.5,12.28,63.59,63.59,0,0,0-6.07,13.67c-.13.44-.31.87-.47,1.3a9.22,9.22,0,0,1-1.1,2.07C35.66,38.23,32,40,27.91,41.11a37.69,37.69,0,0,1-7.47,1.07,5,5,0,0,1-2-.44A27.61,27.61,0,0,1,4.67,31.51,5.83,5.83,0,0,0,3.28,30a1.66,1.66,0,0,0-2.75.74A7.35,7.35,0,0,0,.07,34.66ZM76.61,16.77c-.32-.43-.43-.84,0-1.24s.8-.23,1.23.29a5.82,5.82,0,0,0,2,1.65,4.12,4.12,0,0,0,1.6.38,5.07,5.07,0,0,0,3.68-1.66c.38-.32.65-.82,1.13-.94.1,0,.2.05.3.07.83.4.93.87.31,1.53a8.69,8.69,0,0,1-2,1.56A5.84,5.84,0,0,1,76.61,16.77ZM27.84,54.57c.81-.16,1.55-.22,2.28-.38a23.08,23.08,0,0,0,8.48-4.08,51.16,51.16,0,0,0,8.58-7.79,20,20,0,0,0,2.16-2.48l-.1.06c.14-.2.31-.36.44-.57A25.36,25.36,0,0,1,55.06,33c4.47-3.64,9.3-4.46,14.55-1.77,2.45,1.26,4.5,2.88,5.29,5.7a17.45,17.45,0,0,1,.5,7.22A23.86,23.86,0,0,1,69.69,56.4a18.14,18.14,0,0,1-12.25,6.69,32.16,32.16,0,0,1-10.93-.8,66.47,66.47,0,0,1-17.53-7Z"/></g></g></svg>