<?xml version="1.0" encoding="utf-8"?>
<!-- Generator: Adobe Illustrator 23.0.1, SVG Export Plug-In . SVG Version: 6.00 Build 0)  -->
<svg version="1.1" id="Calque_1" xmlns="http://www.w3.org/2000/svg" xmlns:xlink="http://www.w3.org/1999/xlink" x="0px" y="0px"
	 viewBox="0 0 1945 1080" style="enable-background:new 0 0 1945 1080;" xml:space="preserve">
<style type="text/css">
	.st0{fill:#662D91;}
	.st1{fill:none;}
	.st2{fill:none;stroke:#FFFFFF;stroke-width:3;stroke-miterlimit:10;}
	.st3{fill:none;stroke:#FFFFFF;stroke-width:3;stroke-linecap:round;stroke-miterlimit:10;}
	.st4{fill:#FFFFFF;}
	.st5{fill:none;stroke:#FFFFFF;stroke-width:3;stroke-linecap:round;stroke-linejoin:round;stroke-miterlimit:10;}
	.st6{font-family:'ArialRoundedMTBold';}
	.st7{font-size:30px;}
	.st8{fill:#F6EE82;}
</style>
<g>
	<rect class="st0" width="976" height="1080"/>
</g>
<path class="st1" d="M796.11,365.82c-30.14,15.44-55.37,35.34-65.12,70.06c-8.21,29.29-10.28,58.87-6.15,88.91
	c7.88,57.53,33.29,106.85,70.32,150.95c39.61,47.18,89.17,75.36,150.73,82.3c9.91,1.12,19.77,1.76,29.61,1.99V387.85
	c-0.09-0.08-0.18-0.16-0.28-0.23C920.13,342.75,860.7,332.73,796.11,365.82z"/>
<path class="st1" d="M695.05,176.37c-6.89,8.15-14.26,15.83-24.13,20.32c-7.94,3.59-14.86,4.53-19.73,4.74
	c-24.5,1.05-42.01-17.04-45.28-20.54c-4.65-3.85-8.04-10.06-13.96-11.53c-1.23-0.29-2.44,0.61-3.65,0.92
	c-10.19,4.85-11.41,10.66-3.87,18.79c7.27,7.86,16.07,13.78,25.25,19.13c37.19,21.67,74.4,14.11,100.31-20.15
	c3.96-5.22,5.35-10.24,0.27-15.21C705.95,168.62,700.4,170.03,695.05,176.37z"/>
<g>
	<circle class="st2" cx="160.5" cy="653.5" r="25"/>
	<line class="st3" x1="176.5" y1="672.5" x2="185.5" y2="684.5"/>
</g>
<g>
	<g>
		<path class="st4" d="M147.5,745c5.24,0,9.5,5.16,9.5,11.5s-4.26,11.5-9.5,11.5s-9.5-5.16-9.5-11.5S142.26,745,147.5,745
			 M147.5,742c-6.9,0-12.5,6.49-12.5,14.5s5.6,14.5,12.5,14.5s12.5-6.49,12.5-14.5S154.4,742,147.5,742L147.5,742z"/>
	</g>
	<g>
		<path class="st4" d="M176.5,745c5.24,0,9.5,5.16,9.5,11.5s-4.26,11.5-9.5,11.5s-9.5-5.16-9.5-11.5S171.26,745,176.5,745
			 M176.5,742c-6.9,0-12.5,6.49-12.5,14.5s5.6,14.5,12.5,14.5s12.5-6.49,12.5-14.5S183.4,742,176.5,742L176.5,742z"/>
	</g>
	<g>
		<path class="st4" d="M157.69,781c4.58,0,8.31,3.73,8.31,8.31V808h-38v-18.32c0-4.78,3.89-8.68,8.68-8.68H157.69 M157.69,778
			h-21.01c-6.45,0-11.68,5.23-11.68,11.68v19.23c0,1.16,0.94,2.09,2.09,2.09h39.82c1.16,0,2.09-0.94,2.09-2.09v-19.6
			C169,783.06,163.94,778,157.69,778L157.69,778z"/>
	</g>
	<g>
		<path class="st4" d="M185.69,781c4.58,0,8.31,3.73,8.31,8.31V808h-36v-18.32c0-4.78,3.89-8.68,8.68-8.68H185.69 M185.69,778
			h-19.01c-6.45,0-11.68,5.23-11.68,11.68v19.23c0,1.16,0.94,2.09,2.09,2.09h37.82c1.16,0,2.09-0.94,2.09-2.09v-19.6
			C197,783.06,191.94,778,185.69,778L185.69,778z"/>
	</g>
</g>
<path class="st5" d="M195,894.5c0,9.46-2,15.5-7,19.5c-1.75,1.4,1.76,5.29,4,12c1,3-16-12-25-9c-13.81,4.6-34-6.3-34-22.5
	c0-14.64,13.88-26.5,31-26.5S195,879.86,195,894.5z"/>
<text transform="matrix(1 0 0 1 237.002 673.2109)" class="st4 st6 st7">Suivez vos passions.</text>
<g>
	<text transform="matrix(1 0 0 1 229.002 794.2109)" class="st4 st6 st7">Découvrez ce dont les gens parlent.</text>
</g>
<g>
	<text transform="matrix(1 0 0 1 237.002 909.2109)" class="st4 st6 st7">Rejoignez la conversation.</text>
</g>
<g>
	<path class="st8" d="M976,1109.22c-2.12,0.51-4.22,1.12-6.31,1.89c-4.4,1.61-9.1,3.64-9.51,8.89c-0.38,4.76,3.49,7.55,7.21,9.97
		c2.76,1.8,5.64,3.28,8.61,4.53V1109.22z"/>
	<path class="st8" d="M578.25,284.56c3.16,4.1,5.87,8.11,5.87,13.88c0.06,29.97,2.83,59.77,7.51,89.36
		c6.78,42.88,14.11,85.67,30.42,126.3c26.16,65.13,63.14,123.82,106.72,178.5c33.97,42.62,71.4,81.94,113.68,116.44l0,0.02
		l21.02,17.21c0.16,0.18,0.33,0.36,0.51,0.5c35.39,27.19,72.54,50.94,112.02,70.13V696.9c-5.35-5.42-10.54-11.12-15.58-17.12
		c-39.13-46.6-65.99-98.73-74.31-159.53c-4.36-31.76-2.17-63.01,6.5-93.96c10.3-36.69,36.96-57.72,68.81-74.04
		c4.89-2.5,9.74-4.77,14.58-6.81V-51.7c-4.8-0.54-9.63-0.98-14.52-1.29c-65.6-4.18-127.17,12.7-186.77,37.8
		C700.04,16.26,642.3,65.95,610.33,142.23c-1.49,3.58-4.2,5.19-7.24,6.86c-28.23,15.47-56.38,31.09-84.73,46.33
		c-5.21,2.81-5.75,4.53-1.96,9.33C537.22,231.2,557.67,257.94,578.25,284.56z M741.82,145.62c1.28-0.33,2.56-1.28,3.85-0.97
		c6.25,1.55,9.83,8.11,14.75,12.18c3.45,3.7,21.96,22.81,47.85,21.7c5.15-0.23,12.47-1.22,20.85-5.01
		c10.43-4.75,18.22-12.86,25.5-21.47c5.65-6.7,11.52-8.19,16.09-3.72c5.36,5.25,3.89,10.55-0.29,16.07
		c-27.38,36.21-66.71,44.2-106.01,21.3c-9.7-5.65-18.99-11.91-26.68-20.22C729.76,156.89,731.05,150.75,741.82,145.62z"/>
</g>
</svg>
